<svg width="512" height="512" viewBox="0 0 512 512" xmlns="http://www.w3.org/2000/svg">
  <defs>
    <linearGradient id="briefcaseGrad" x1="0%" y1="0%" x2="0%" y2="100%">
      <stop offset="0%" style="stop-color:#FFB700;stop-opacity:1" />
      <stop offset="100%" style="stop-color:#FF8C00;stop-opacity:1" />
    </linearGradient>
  </defs>
  <rect width="512" height="512" fill="#0B0F1A"/>
  
  <!-- Briefcase Handle -->
  <path d="M220 100 L292 100 A 20 20 0 0 1 312 120 L312 150 L200 150 L200 120 A 20 20 0 0 1 220 100 Z" 
        fill="#FFD700"/>
        
  <!-- Flame/Briefcase Body Fusion -->
  <path d="M150 150 L362 150 C380 150 400 170 400 200 L400 350 C400 420 350 460 256 460 C162 460 112 420 112 350 L112 200 C112 170 130 150 150 150 Z" 
        fill="url(#briefcaseGrad)"/>
        
  <!-- Professional Divider Line -->
  <rect x="112" y="220" width="288" height="20" fill="#0B0F1A" opacity="0.3"/>
  <rect x="246" y="240" width="20" height="60" fill="#0B0F1A" opacity="0.3"/>
</svg>
